<svg width="30" height="35" viewBox="0 0 30 35" fill="none" xmlns="http://www.w3.org/2000/svg">
<path d="M15 34.2856C17.3652 34.2856 19.2837 32.3671 19.2837 29.9999H10.7163C10.7163 32.3671 12.6348 34.2856 15 34.2856ZM29.4234 24.2604C28.1297 22.8702 25.7089 20.779 25.7089 13.9285C25.7089 8.72542 22.0607 4.56025 17.1415 3.53838V2.14285C17.1415 0.959595 16.1826 0 15 0C13.8174 0 12.8585 0.959595 12.8585 2.14285V3.53838C7.93931 4.56025 4.2911 8.72542 4.2911 13.9285C4.2911 20.779 1.87035 22.8702 0.576607 24.2604C0.174823 24.6923 -0.00330191 25.2086 4.62982e-05 25.7142C0.00741235 26.8124 0.86924 27.8571 2.14959 27.8571H27.8504C29.1308 27.8571 29.9933 26.8124 30 25.7142C30.0033 25.2086 29.8252 24.6917 29.4234 24.2604Z" fill="white"/>
</svg>
