<svg width="45" height="45" viewBox="0 0 45 45" fill="none" xmlns="http://www.w3.org/2000/svg">
<path fill-rule="evenodd" clip-rule="evenodd" d="M22.4997 9L14.2056 17.2945L17.2566 20.3454L22.4997 15.1023L27.746 20.3482L30.7969 17.2975L22.4997 9ZM9 22.4995L12.0507 25.5502L15.1019 22.4993L12.0509 19.4485L9 22.4995ZM17.2566 24.6542L22.4997 29.8974L27.7458 24.6515L30.7982 27.7007L30.7969 27.7026L22.4997 35.9994L14.2054 27.7052L14.2009 27.7009L17.2566 24.6542ZM29.8981 22.5008L32.9488 25.5516L36 22.5008L32.9488 19.4499L29.8981 22.5008ZM20.2118 21.6901L22.4998 19.4022L25.5957 22.4981H25.5944L25.5972 22.4996L25.5957 22.5013L22.4998 25.5973L19.4066 22.5041L19.4023 22.4996L19.4066 22.4954L19.9489 21.9531L20.2116 21.6901H20.2118Z" fill="#F3C82F"/>
</svg>
