<svg width="144" height="27" viewBox="0 0 144 27" fill="none" xmlns="http://www.w3.org/2000/svg">
<g filter="url(#filter0_ddddd_205_129)">
<path d="M16.832 4.548V11.212H8.32V4.548H4.4V23H8.32V15.16H16.832V23H20.752V4.548H16.832ZM32.8073 4.576C27.7113 4.576 23.5953 8.72 23.5953 13.788C23.5953 18.884 27.7113 23 32.8073 23C37.8753 23 42.0193 18.884 42.0193 13.788C42.0193 8.72 37.8753 4.576 32.8073 4.576ZM38.1553 13.788C38.1553 16.756 35.7473 19.164 32.8073 19.164C29.8393 19.164 27.4313 16.756 27.4313 13.788C27.4313 10.848 29.8393 8.44 32.8073 8.44C35.7473 8.44 38.1553 10.848 38.1553 13.788ZM48.7614 19.08V4.38H44.8414V23H59.5414V19.08H48.7614ZM79.0568 12.5C78.7488 10.316 77.6848 8.3 76.0328 6.844C74.5208 5.5 72.5888 4.688 70.6008 4.548L62.3688 4.52V8.44H70.1248C70.4048 8.468 70.6848 8.496 70.9368 8.552C71.7208 8.72 72.4488 9.056 73.0928 9.532C74.1568 10.316 74.8568 11.464 75.1368 12.752C75.1928 13.088 75.2208 13.452 75.2208 13.788C75.2208 14.18 75.1928 14.544 75.1087 14.908C74.6608 17.064 72.8968 18.744 70.7128 19.08H66.2888V11.184H62.3688V23H70.9648H71.0208C75.1368 22.496 78.4688 19.276 79.0568 15.16C79.1128 14.712 79.1688 14.264 79.1688 13.788C79.1688 13.368 79.1408 12.92 79.0568 12.5ZM81.9742 4.52V5.248V8.44H98.4942V4.52H81.9742ZM85.8942 15.104H96.8422V11.184H85.8942L81.9742 11.156V19.08V19.808V23H98.4942V19.08H85.8942V15.104ZM118.498 21.88L113.206 13.2C113.234 13.2 113.262 13.172 113.29 13.144L113.318 13.116C113.346 13.116 113.374 13.088 113.374 13.06C113.43 13.032 113.458 13.004 113.514 12.976C113.542 12.948 113.598 12.892 113.654 12.864C113.654 12.836 113.682 12.836 113.682 12.836C113.71 12.808 113.766 12.752 113.794 12.724C113.906 12.612 114.018 12.528 114.158 12.388C115.418 11.128 116.314 9.56 116.678 7.824C116.846 7.152 116.902 6.48 116.902 5.808C116.902 5.584 116.902 5.36 116.874 5.164L116.846 4.464H101.306V8.384H109.706H112.31C112.058 8.832 111.75 9.252 111.386 9.588C110.91 10.064 110.378 10.428 109.762 10.708C109.734 10.708 109.734 10.708 109.706 10.736C109.062 10.988 108.362 11.128 107.662 11.128H101.306V23H105.226V15.076H107.662C107.718 15.076 107.774 15.048 107.83 15.048H107.858H107.886H107.942C107.998 15.048 108.026 15.048 108.082 15.048C108.11 15.048 108.138 15.048 108.138 15.048C108.194 15.048 108.25 15.048 108.306 15.048H108.362L108.39 15.02C108.446 15.02 108.502 15.02 108.586 15.02C108.642 15.02 108.698 14.992 108.782 14.992C108.81 14.992 108.838 14.992 108.866 14.992C108.922 14.964 108.978 14.964 109.034 14.964C109.062 14.964 109.09 14.964 109.118 14.936C109.146 14.936 109.202 14.936 109.258 14.936C109.37 14.908 109.482 14.88 109.594 14.852L114.354 22.664L114.578 23H119.17L118.498 21.88ZM139.197 21.88L133.905 13.2C133.933 13.2 133.961 13.172 133.989 13.144L134.017 13.116C134.045 13.116 134.073 13.088 134.073 13.06C134.129 13.032 134.157 13.004 134.213 12.976C134.241 12.948 134.297 12.892 134.353 12.864C134.353 12.836 134.381 12.836 134.381 12.836C134.409 12.808 134.465 12.752 134.493 12.724C134.605 12.612 134.717 12.528 134.857 12.388C136.117 11.128 137.013 9.56 137.377 7.824C137.545 7.152 137.601 6.48 137.601 5.808C137.601 5.584 137.601 5.36 137.573 5.164L137.545 4.464H122.005V8.384H130.405H133.009C132.757 8.832 132.449 9.252 132.085 9.588C131.609 10.064 131.077 10.428 130.461 10.708C130.433 10.708 130.433 10.708 130.405 10.736C129.761 10.988 129.061 11.128 128.361 11.128H122.005V23H125.925V15.076H128.361C128.417 15.076 128.473 15.048 128.529 15.048H128.557H128.585H128.641C128.697 15.048 128.725 15.048 128.781 15.048C128.809 15.048 128.837 15.048 128.837 15.048C128.893 15.048 128.949 15.048 129.005 15.048H129.061L129.089 15.02C129.145 15.02 129.201 15.02 129.285 15.02C129.341 15.02 129.397 14.992 129.481 14.992C129.509 14.992 129.537 14.992 129.565 14.992C129.621 14.964 129.677 14.964 129.733 14.964C129.761 14.964 129.789 14.964 129.817 14.936C129.845 14.936 129.901 14.936 129.957 14.936C130.069 14.908 130.181 14.88 130.293 14.852L135.053 22.664L135.277 23H139.869L139.197 21.88Z" fill="white"/>
</g>
<defs>
<filter id="filter0_ddddd_205_129" x="0.400024" y="0.380005" width="143.469" height="26.62" filterUnits="userSpaceOnUse" color-interpolation-filters="sRGB">
<feFlood flood-opacity="0" result="BackgroundImageFix"/>
<feColorMatrix in="SourceAlpha" type="matrix" values="0 0 0 0 0 0 0 0 0 0 0 0 0 0 0 0 0 0 127 0" result="hardAlpha"/>
<feOffset/>
<feGaussianBlur stdDeviation="2"/>
<feComposite in2="hardAlpha" operator="out"/>
<feColorMatrix type="matrix" values="0 0 0 0 1 0 0 0 0 1 0 0 0 0 1 0 0 0 0.25 0"/>
<feBlend mode="overlay" in2="BackgroundImageFix" result="effect1_dropShadow_205_129"/>
<feColorMatrix in="SourceAlpha" type="matrix" values="0 0 0 0 0 0 0 0 0 0 0 0 0 0 0 0 0 0 127 0" result="hardAlpha"/>
<feOffset/>
<feGaussianBlur stdDeviation="2"/>
<feComposite in2="hardAlpha" operator="out"/>
<feColorMatrix type="matrix" values="0 0 0 0 1 0 0 0 0 1 0 0 0 0 1 0 0 0 0.25 0"/>
<feBlend mode="overlay" in2="effect1_dropShadow_205_129" result="effect2_dropShadow_205_129"/>
<feColorMatrix in="SourceAlpha" type="matrix" values="0 0 0 0 0 0 0 0 0 0 0 0 0 0 0 0 0 0 127 0" result="hardAlpha"/>
<feOffset/>
<feGaussianBlur stdDeviation="2"/>
<feComposite in2="hardAlpha" operator="out"/>
<feColorMatrix type="matrix" values="0 0 0 0 1 0 0 0 0 1 0 0 0 0 1 0 0 0 0.25 0"/>
<feBlend mode="overlay" in2="effect2_dropShadow_205_129" result="effect3_dropShadow_205_129"/>
<feColorMatrix in="SourceAlpha" type="matrix" values="0 0 0 0 0 0 0 0 0 0 0 0 0 0 0 0 0 0 127 0" result="hardAlpha"/>
<feOffset/>
<feGaussianBlur stdDeviation="2"/>
<feComposite in2="hardAlpha" operator="out"/>
<feColorMatrix type="matrix" values="0 0 0 0 1 0 0 0 0 1 0 0 0 0 1 0 0 0 0.25 0"/>
<feBlend mode="overlay" in2="effect3_dropShadow_205_129" result="effect4_dropShadow_205_129"/>
<feColorMatrix in="SourceAlpha" type="matrix" values="0 0 0 0 0 0 0 0 0 0 0 0 0 0 0 0 0 0 127 0" result="hardAlpha"/>
<feOffset/>
<feGaussianBlur stdDeviation="2"/>
<feComposite in2="hardAlpha" operator="out"/>
<feColorMatrix type="matrix" values="0 0 0 0 1 0 0 0 0 1 0 0 0 0 1 0 0 0 0.25 0"/>
<feBlend mode="overlay" in2="effect4_dropShadow_205_129" result="effect5_dropShadow_205_129"/>
<feBlend mode="normal" in="SourceGraphic" in2="effect5_dropShadow_205_129" result="shape"/>
</filter>
</defs>
</svg>
