<svg width="30" height="35" viewBox="0 0 30 35" fill="none" xmlns="http://www.w3.org/2000/svg">
<path d="M15 17.1429C19.7344 17.1429 23.5714 13.3058 23.5714 8.57143C23.5714 3.83705 19.7344 0 15 0C10.2656 0 6.42857 3.83705 6.42857 8.57143C6.42857 13.3058 10.2656 17.1429 15 17.1429ZM21 19.2857H19.8817C18.3951 19.9688 16.7411 20.3571 15 20.3571C13.2589 20.3571 11.6116 19.9688 10.1183 19.2857H9C4.03125 19.2857 0 23.317 0 28.2857V31.0714C0 32.846 1.43973 34.2857 3.21429 34.2857H26.7857C28.5603 34.2857 30 32.846 30 31.0714V28.2857C30 23.317 25.9688 19.2857 21 19.2857Z" fill="white"/>
</svg>
