<svg width="30" height="27" viewBox="0 0 30 27" fill="none" xmlns="http://www.w3.org/2000/svg">
<path d="M27.0234 5.625H4.6875C4.16953 5.625 3.75 5.20547 3.75 4.6875C3.75 4.16953 4.16953 3.75 4.6875 3.75H27.1875C27.7055 3.75 28.125 3.33047 28.125 2.8125C28.125 1.25918 26.8658 0 25.3125 0H3.75C1.67871 0 0 1.67871 0 3.75V22.5C0 24.5713 1.67871 26.25 3.75 26.25H27.0234C28.6652 26.25 30 24.9885 30 23.4375V8.4375C30 6.88652 28.6652 5.625 27.0234 5.625ZM24.375 17.8125C23.3396 17.8125 22.5 16.9729 22.5 15.9375C22.5 14.9021 23.3396 14.0625 24.375 14.0625C25.4104 14.0625 26.25 14.9021 26.25 15.9375C26.25 16.9729 25.4104 17.8125 24.375 17.8125Z" fill="white"/>
</svg>
